<svg width="40" height="40" viewBox="0 0 40 40" fill="none" xmlns="http://www.w3.org/2000/svg">
<path d="M16 18H14C13.4696 18 12.9609 18.2107 12.5858 18.5858C12.2107 18.9609 12 19.4696 12 20V27C12 27.5304 12.2107 28.0391 12.5858 28.4142C12.9609 28.7893 13.4696 29 14 29H26C26.5304 29 27.0391 28.7893 27.4142 28.4142C27.7893 28.0391 28 27.5304 28 27V20C28 19.4696 27.7893 18.9609 27.4142 18.5858C27.0391 18.2107 26.5304 18 26 18H24M16 18V15C16 13.9391 16.4214 12.9217 17.1716 12.1716C17.9217 11.4214 18.9391 11 20 11C21.0609 11 22.0783 11.4214 22.8284 12.1716C23.5786 12.9217 24 13.9391 24 15V18M16 18H24M20 22V25" stroke="#969696" stroke-width="1.2" stroke-linecap="round" stroke-linejoin="round"/>
</svg>
